<svg width="239" height="243" viewBox="0 0 239 243" fill="none" xmlns="http://www.w3.org/2000/svg">
<path d="M198.447 13.0846H49.5654C38.0283 13.0846 28.6756 22.4708 28.6756 34.0492V222.035C28.6756 233.614 38.0283 243 49.5654 243H198.447C209.984 243 219.337 233.614 219.337 222.035V34.0492C219.337 22.4708 209.984 13.0846 198.447 13.0846Z" fill="white"/>
<path d="M197.699 243H48.4441C36.5131 243 26.8064 233.263 26.8064 221.294V32.9208C26.8064 20.9525 36.5131 11.2154 48.4441 11.2154H197.699C209.63 11.2154 219.337 20.9525 219.337 32.9208V221.294C219.337 233.263 209.63 243 197.699 243ZM48.4441 12.6107C37.2801 12.6107 28.1974 21.7219 28.1974 32.9208V221.294C28.1974 232.493 37.2801 241.604 48.4441 241.604H197.699C208.863 241.604 217.946 232.493 217.946 221.294V32.9208C217.946 21.7219 208.863 12.6107 197.699 12.6107H48.4441Z" fill="url(#paint0_linear_1_175)"/>
<path d="M190.966 22.4308H57.0465C45.5071 22.4308 36.1525 31.8734 36.1525 43.5215V214.432C36.1525 226.08 45.5071 235.523 57.0465 235.523H190.966C202.506 235.523 211.86 226.08 211.86 214.432V43.5215C211.86 31.8734 202.506 22.4308 190.966 22.4308Z" fill="white"/>
<path d="M190.213 235.523H55.9299C43.994 235.523 34.2833 225.726 34.2833 213.684V42.4002C34.2833 30.3584 43.994 20.5615 55.9299 20.5615H190.213C202.149 20.5615 211.86 30.3584 211.86 42.4002V213.684C211.86 225.726 202.149 235.523 190.213 235.523ZM55.9297 21.9655C44.7612 21.9655 35.6747 31.1324 35.6747 42.4002V213.684C35.6747 224.952 44.7612 234.119 55.9297 234.119H190.213C201.382 234.119 210.468 224.952 210.468 213.684V42.4002C210.468 31.1324 201.382 21.9655 190.213 21.9655H55.9297Z" fill="url(#paint1_linear_1_175)"/>
<path d="M152.815 1.86923H95.1978C89.4291 1.86923 84.7526 6.65449 84.7526 12.5574V22.958C84.7526 28.8609 89.4291 33.6462 95.1978 33.6462H152.815C158.584 33.6462 163.26 28.8609 163.26 22.958V12.5574C163.26 6.65449 158.584 1.86923 152.815 1.86923Z" fill="white"/>
<path d="M152.06 33.6462H94.084C87.908 33.6462 82.8833 28.4648 82.8833 22.0962V11.5499C82.8833 5.18132 87.908 0 94.084 0H152.06C158.236 0 163.26 5.18132 163.26 11.5499V22.0962C163.26 28.4648 158.236 33.6462 152.06 33.6462ZM94.084 1.42396C88.6693 1.42396 84.2642 5.9664 84.2642 11.5499V22.0962C84.2642 27.6798 88.6693 32.2222 94.084 32.2222H152.06C157.474 32.2222 161.879 27.6798 161.879 22.0962V11.5499C161.879 5.9664 157.474 1.42396 152.06 1.42396H94.084Z" fill="url(#paint2_linear_1_175)"/>
<path d="M185.812 183.185H62.2012C58.145 183.185 54.8449 179.823 54.8449 175.691V168.247C54.8449 164.115 58.145 160.754 62.2012 160.754H185.812C189.868 160.754 193.168 164.115 193.168 168.247V175.691C193.168 179.823 189.868 183.185 185.812 183.185ZM62.2012 162.174C58.9135 162.174 56.2387 164.898 56.2387 168.247V175.691C56.2387 179.04 58.9135 181.765 62.2012 181.765H185.812C189.099 181.765 191.774 179.04 191.774 175.691V168.247C191.774 164.898 189.099 162.174 185.812 162.174H62.2012Z" fill="url(#paint3_linear_1_175)"/>
<path d="M185.812 214.961H62.2012C58.145 214.961 54.8449 211.6 54.8449 207.468V200.024C54.8449 195.892 58.145 192.531 62.2012 192.531H185.812C189.868 192.531 193.168 195.892 193.168 200.024V207.468C193.168 211.6 189.868 214.961 185.812 214.961ZM62.2012 193.95C58.9135 193.95 56.2387 196.675 56.2387 200.024V207.468C56.2387 210.817 58.9135 213.542 62.2012 213.542H185.812C189.099 213.542 191.774 210.817 191.774 207.468V200.024C191.774 196.675 189.099 193.95 185.812 193.95H62.2012Z" fill="url(#paint4_linear_1_175)"/>
<path d="M225.397 42.9924H20.7471C13.7701 42.9924 8.11417 48.6588 8.11417 55.6486V131.275C8.11417 138.264 13.7701 143.931 20.7471 143.931H225.397C232.374 143.931 238.03 138.264 238.03 131.275V55.6486C238.03 48.6588 232.374 42.9924 225.397 42.9924Z" fill="white"/>
<path d="M224.744 143.931H19.5306C12.2049 143.931 6.2449 137.939 6.2449 130.575V54.4792C6.2449 47.1147 12.2049 41.1231 19.5306 41.1231H224.744C232.07 41.1231 238.03 47.1147 238.03 54.4792V130.575C238.03 137.939 232.07 143.931 224.744 143.931ZM19.5306 42.3654C12.8864 42.3654 7.48078 47.7996 7.48078 54.479V130.575C7.48078 137.254 12.8864 142.688 19.5306 142.688H224.744C231.388 142.688 236.794 137.254 236.794 130.575V54.479C236.794 47.7996 231.388 42.3654 224.744 42.3654H19.5306Z" fill="url(#paint5_linear_1_175)"/>
<path d="M85.6865 140.192C77.1929 140.192 68.9523 137.661 61.8559 132.872C58.6844 130.734 55.7826 128.172 53.231 125.255C45.8341 116.807 41.7603 105.848 41.7603 94.3969C41.7603 82.1641 46.3295 70.6635 54.626 62.0136C62.9226 53.3639 73.9535 48.6001 85.6865 48.6001C97.4196 48.6001 108.451 53.3637 116.748 62.0136C125.045 70.6635 129.614 82.164 129.614 94.3969C129.614 106.63 125.045 118.129 116.748 126.779C108.451 135.429 97.42 140.192 85.6865 140.192ZM85.6865 50.0251C62.2192 50.0251 43.1272 69.9302 43.1272 94.3969C43.1272 105.491 47.074 116.109 54.2407 124.295C56.7132 127.121 59.5251 129.604 62.5983 131.675C69.4733 136.315 77.457 138.767 85.6865 138.767C109.155 138.767 128.247 118.863 128.247 94.3968C128.247 69.9309 109.155 50.025 85.6865 50.025V50.0251Z" fill="url(#paint6_linear_1_175)"/>
<path d="M84.7518 134.585C77.3322 134.585 70.109 132.455 63.8629 128.426C60.6396 126.35 57.7286 123.804 55.2114 120.86C48.948 113.539 45.4987 104.141 45.4987 94.3969C45.4987 83.662 49.5819 73.5695 56.9958 65.9788C64.4098 58.3881 74.2671 54.2077 84.7519 54.2077C95.2368 54.2077 105.095 58.3881 112.509 65.9788C119.923 73.5695 124.006 83.6618 124.006 94.3969C124.006 105.132 119.923 115.224 112.509 122.814C105.095 130.404 95.2372 134.585 84.7519 134.585H84.7518ZM84.7518 55.6134C63.8646 55.6134 46.8715 73.0115 46.8715 94.3969C46.8715 103.8 50.2002 112.87 56.2443 119.934C58.674 122.776 61.4831 125.233 64.5944 127.237C70.6214 131.124 77.5916 133.179 84.7518 133.179C105.64 133.179 122.633 115.782 122.633 94.3971C122.633 73.0126 105.64 55.6135 84.7518 55.6135V55.6134Z" fill="url(#paint7_linear_1_175)"/>
<path d="M62.3218 132.513L12.4409 196.015C10.5362 198.438 7.01316 198.849 4.61107 196.928C2.20898 195.006 1.80187 191.45 3.70643 189.025L53.8125 125.238C56.3228 128.016 59.183 130.465 62.3217 132.513H62.3218Z" fill="white"/>
<path d="M6.90365 198.139C5.53763 198.139 4.1626 197.693 3.01163 196.773C0.299727 194.606 -0.157098 190.619 1.99283 187.886L52.743 123.369L53.2871 123.97C55.7713 126.716 58.5972 129.128 61.686 131.141L62.3212 131.555L11.8284 195.746C10.591 197.318 8.7555 198.138 6.9035 198.138L6.90365 198.139ZM52.821 125.499L3.06916 188.747C1.38979 190.881 1.74664 193.995 3.86481 195.688C5.98284 197.38 9.07265 197.02 10.7522 194.886L60.3089 131.885C57.5896 130.045 55.0758 127.901 52.8208 125.499H52.821Z" fill="url(#paint8_linear_1_175)"/>
<path d="M53.8102 104.677L52.9757 103.059L98.3871 80.5404C98.945 80.2635 99.6122 80.3431 100.086 80.7424L122.137 99.3109L120.933 100.686L99.0377 82.2493L53.8102 104.677Z" fill="url(#paint9_linear_1_175)"/>
<path d="M139.714 117.761C139.354 117.761 138.994 117.637 138.704 117.386L129.614 109.493L130.827 108.072L139.7 115.776L178.773 76.6384L180.083 77.9686L140.807 117.31C140.507 117.61 140.111 117.762 139.714 117.762L139.714 117.761Z" fill="url(#paint10_linear_1_175)"/>
<path d="M187.921 85.9845C187.559 85.9845 187.201 85.8595 186.918 85.6191L169.373 70.7122C168.916 70.3239 168.751 69.7171 168.953 69.1662C169.154 68.6153 169.679 68.2377 170.29 68.2041L186.881 67.2947C187.712 67.2494 188.425 67.8558 188.473 68.647L189.427 84.4638C189.462 85.0464 189.129 85.5868 188.578 85.8406C188.368 85.9372 188.143 85.9846 187.921 85.9846L187.921 85.9845ZM171.434 69.9904L187.434 83.5848L186.564 69.161L171.434 69.9904H171.434Z" fill="url(#paint11_linear_1_175)"/>
<defs>
<linearGradient id="paint0_linear_1_175" x1="173.496" y1="179.364" x2="122.282" y2="107.548" gradientUnits="userSpaceOnUse">
<stop stop-color="#273049"/>
<stop offset="1" stop-color="#6A80CF"/>
</linearGradient>
<linearGradient id="paint1_linear_1_175" x1="169.58" y1="176.506" x2="121.998" y2="110.15" gradientUnits="userSpaceOnUse">
<stop stop-color="#273049"/>
<stop offset="1" stop-color="#6A80CF"/>
</linearGradient>
<linearGradient id="paint2_linear_1_175" x1="144.123" y1="24.4088" x2="140.449" y2="9.59319" gradientUnits="userSpaceOnUse">
<stop stop-color="#273049"/>
<stop offset="1" stop-color="#6A80CF"/>
</linearGradient>
<linearGradient id="paint3_linear_1_175" x1="160.234" y1="177.026" x2="159.236" y2="166.638" gradientUnits="userSpaceOnUse">
<stop stop-color="#273049"/>
<stop offset="1" stop-color="#6A80CF"/>
</linearGradient>
<linearGradient id="paint4_linear_1_175" x1="160.234" y1="208.803" x2="159.236" y2="198.415" gradientUnits="userSpaceOnUse">
<stop stop-color="#273049"/>
<stop offset="1" stop-color="#6A80CF"/>
</linearGradient>
<linearGradient id="paint5_linear_1_175" x1="182.843" y1="115.705" x2="171.033" y2="70.7552" gradientUnits="userSpaceOnUse">
<stop stop-color="#273049"/>
<stop offset="1" stop-color="#6A80CF"/>
</linearGradient>
<linearGradient id="paint6_linear_1_175" x1="108.697" y1="115.046" x2="89.5574" y2="84.0546" gradientUnits="userSpaceOnUse">
<stop stop-color="#273049"/>
<stop offset="1" stop-color="#6A80CF"/>
</linearGradient>
<linearGradient id="paint7_linear_1_175" x1="105.314" y1="112.518" x2="88.6567" y2="85.0507" gradientUnits="userSpaceOnUse">
<stop stop-color="#273049"/>
<stop offset="1" stop-color="#6A80CF"/>
</linearGradient>
<linearGradient id="paint8_linear_1_175" x1="47.6345" y1="177.611" x2="31.0774" y2="154.551" gradientUnits="userSpaceOnUse">
<stop stop-color="#273049"/>
<stop offset="1" stop-color="#6A80CF"/>
</linearGradient>
<linearGradient id="paint9_linear_1_175" x1="105.67" y1="98.0055" x2="103.404" y2="87.119" gradientUnits="userSpaceOnUse">
<stop stop-color="#273049"/>
<stop offset="1" stop-color="#6A80CF"/>
</linearGradient>
<linearGradient id="paint10_linear_1_175" x1="168.067" y1="106.471" x2="160.542" y2="90.8818" gradientUnits="userSpaceOnUse">
<stop stop-color="#273049"/>
<stop offset="1" stop-color="#6A80CF"/>
</linearGradient>
<linearGradient id="paint11_linear_1_175" x1="184.534" y1="80.8527" x2="180.887" y2="74.0798" gradientUnits="userSpaceOnUse">
<stop stop-color="#273049"/>
<stop offset="1" stop-color="#6A80CF"/>
</linearGradient>
</defs>
</svg>
