<svg width="193" height="243" viewBox="0 0 193 243" fill="none" xmlns="http://www.w3.org/2000/svg">
<path d="M171.641 13.0846H22.759C11.2219 13.0846 1.86917 22.4708 1.86917 34.0492V222.035C1.86917 233.614 11.2219 243 22.759 243H171.641C183.178 243 192.531 233.614 192.531 222.035V34.0492C192.531 22.4708 183.178 13.0846 171.641 13.0846Z" fill="white"/>
<path d="M170.892 243H21.6376C9.70663 243 -3.05176e-05 233.263 -3.05176e-05 221.294V32.9208C-3.05176e-05 20.9525 9.70663 11.2154 21.6376 11.2154H170.892C182.823 11.2154 192.53 20.9525 192.53 32.9208V221.294C192.53 233.263 182.823 243 170.892 243ZM21.6376 12.6107C10.4737 12.6107 1.39096 21.7219 1.39096 32.9208V221.294C1.39096 232.493 10.4737 241.604 21.6376 241.604H170.892C182.056 241.604 191.139 232.493 191.139 221.294V32.9208C191.139 21.7219 182.056 12.6107 170.892 12.6107H21.6376Z" fill="url(#paint0_linear_46_21)"/>
<path d="M164.16 22.4308H30.2401C18.7007 22.4308 9.3461 31.8734 9.3461 43.5215V214.432C9.3461 226.08 18.7007 235.523 30.2401 235.523H164.16C175.699 235.523 185.054 226.08 185.054 214.432V43.5215C185.054 31.8734 175.699 22.4308 164.16 22.4308Z" fill="white"/>
<path d="M163.407 235.523H29.1234C17.1875 235.523 7.4769 225.726 7.4769 213.684V42.4002C7.4769 30.3584 17.1875 20.5615 29.1234 20.5615H163.407C175.343 20.5615 185.053 30.3584 185.053 42.4002V213.684C185.053 225.726 175.343 235.523 163.407 235.523ZM29.1233 21.9655C17.9548 21.9655 8.86831 31.1324 8.86831 42.4002V213.684C8.86831 224.952 17.9548 234.119 29.1233 234.119H163.407C174.575 234.119 183.662 224.952 183.662 213.684V42.4002C183.662 31.1324 174.575 21.9655 163.407 21.9655H29.1233Z" fill="url(#paint1_linear_46_21)"/>
<path d="M126.009 1.86923H68.3914C62.6226 1.86923 57.9461 6.65449 57.9461 12.5574V22.958C57.9461 28.8609 62.6226 33.6462 68.3914 33.6462H126.009C131.777 33.6462 136.454 28.8609 136.454 22.958V12.5574C136.454 6.65449 131.777 1.86923 126.009 1.86923Z" fill="white"/>
<path d="M125.253 33.6462H67.2776C61.1016 33.6462 56.0769 28.4648 56.0769 22.0962V11.5499C56.0769 5.18132 61.1016 0 67.2776 0H125.253C131.429 0 136.454 5.18132 136.454 11.5499V22.0962C136.454 28.4648 131.429 33.6462 125.253 33.6462ZM67.2776 1.42396C61.8629 1.42396 57.4578 5.9664 57.4578 11.5499V22.0962C57.4578 27.6798 61.8629 32.2222 67.2776 32.2222H125.253C130.668 32.2222 135.073 27.6798 135.073 22.0962V11.5499C135.073 5.9664 130.668 1.42396 125.253 1.42396H67.2776Z" fill="url(#paint2_linear_46_21)"/>
<path d="M159.005 190.185H35.3948C31.3386 190.185 28.0385 186.823 28.0385 182.691V175.247C28.0385 171.115 31.3386 167.754 35.3948 167.754H159.005C163.061 167.754 166.362 171.115 166.362 175.247V182.691C166.362 186.823 163.061 190.185 159.005 190.185ZM35.3948 169.174C32.1071 169.174 29.4323 171.898 29.4323 175.247V182.691C29.4323 186.04 32.1071 188.765 35.3948 188.765H159.005C162.293 188.765 164.968 186.04 164.968 182.691V175.247C164.968 171.898 162.293 169.174 159.005 169.174H35.3948Z" fill="url(#paint3_linear_46_21)"/>
<path d="M159.005 221.961H35.3948C31.3386 221.961 28.0385 218.6 28.0385 214.468V207.024C28.0385 202.892 31.3386 199.531 35.3948 199.531H159.005C163.061 199.531 166.362 202.892 166.362 207.024V214.468C166.362 218.6 163.061 221.961 159.005 221.961ZM35.3948 200.95C32.1071 200.95 29.4323 203.675 29.4323 207.024V214.468C29.4323 217.817 32.1071 220.542 35.3948 220.542H159.005C162.293 220.542 164.968 217.817 164.968 214.468V207.024C164.968 203.675 162.293 200.95 159.005 200.95H35.3948Z" fill="url(#paint4_linear_46_21)"/>
<path d="M157.798 125.431H34.1872C30.1309 125.431 26.8308 122.069 26.8308 117.937V110.493C26.8308 106.362 30.1309 103 34.1872 103H157.798C161.854 103 165.154 106.362 165.154 110.493V117.937C165.154 122.069 161.854 125.431 157.798 125.431ZM34.1872 104.42C30.8994 104.42 28.2246 107.144 28.2246 110.493V117.937C28.2246 121.286 30.8994 124.011 34.1872 124.011H157.798C161.085 124.011 163.76 121.286 163.76 117.937V110.493C163.76 107.144 161.085 104.42 157.798 104.42H34.1872Z" fill="url(#paint5_linear_46_21)"/>
<path d="M157.798 157.208H34.1872C30.1309 157.208 26.8308 153.846 26.8308 149.714V142.27C26.8308 138.138 30.1309 134.777 34.1872 134.777H157.798C161.854 134.777 165.154 138.138 165.154 142.27V149.714C165.154 153.846 161.854 157.208 157.798 157.208ZM34.1872 136.197C30.8994 136.197 28.2246 138.921 28.2246 142.27V149.714C28.2246 153.063 30.8994 155.788 34.1872 155.788H157.798C161.085 155.788 163.76 153.063 163.76 149.714V142.27C163.76 138.921 161.085 136.197 157.798 136.197H34.1872Z" fill="url(#paint6_linear_46_21)"/>
<path d="M157.798 66.4308H34.1872C30.1309 66.4308 26.8308 63.0692 26.8308 58.9374V51.4934C26.8308 47.3616 30.1309 44 34.1872 44H157.798C161.854 44 165.154 47.3616 165.154 51.4934V58.9374C165.154 63.0692 161.854 66.4308 157.798 66.4308ZM34.1872 45.4198C30.8994 45.4198 28.2246 48.1444 28.2246 51.4934V58.9374C28.2246 62.2864 30.8994 65.011 34.1872 65.011H157.798C161.085 65.011 163.76 62.2864 163.76 58.9374V51.4934C163.76 48.1444 161.085 45.4198 157.798 45.4198H34.1872Z" fill="url(#paint7_linear_46_21)"/>
<path d="M157.798 98.2076H34.1872C30.1309 98.2076 26.8308 94.846 26.8308 90.7142V83.2702C26.8308 79.1385 30.1309 75.7769 34.1872 75.7769H157.798C161.854 75.7769 165.154 79.1385 165.154 83.2702V90.7142C165.154 94.846 161.854 98.2076 157.798 98.2076ZM34.1872 77.1967C30.8994 77.1967 28.2246 79.9212 28.2246 83.2702V90.7142C28.2246 94.0632 30.8994 96.7878 34.1872 96.7878H157.798C161.085 96.7878 163.76 94.0632 163.76 90.7142V83.2702C163.76 79.9212 161.085 77.1967 157.798 77.1967H34.1872Z" fill="url(#paint8_linear_46_21)"/>
<defs>
<linearGradient id="paint0_linear_46_21" x1="146.69" y1="179.364" x2="95.4757" y2="107.548" gradientUnits="userSpaceOnUse">
<stop stop-color="#273049"/>
<stop offset="1" stop-color="#6A80CF"/>
</linearGradient>
<linearGradient id="paint1_linear_46_21" x1="142.773" y1="176.506" x2="95.1919" y2="110.15" gradientUnits="userSpaceOnUse">
<stop stop-color="#273049"/>
<stop offset="1" stop-color="#6A80CF"/>
</linearGradient>
<linearGradient id="paint2_linear_46_21" x1="117.316" y1="24.4088" x2="113.643" y2="9.59319" gradientUnits="userSpaceOnUse">
<stop stop-color="#273049"/>
<stop offset="1" stop-color="#6A80CF"/>
</linearGradient>
<linearGradient id="paint3_linear_46_21" x1="133.427" y1="184.026" x2="132.43" y2="173.638" gradientUnits="userSpaceOnUse">
<stop stop-color="#273049"/>
<stop offset="1" stop-color="#6A80CF"/>
</linearGradient>
<linearGradient id="paint4_linear_46_21" x1="133.427" y1="215.803" x2="132.43" y2="205.415" gradientUnits="userSpaceOnUse">
<stop stop-color="#273049"/>
<stop offset="1" stop-color="#6A80CF"/>
</linearGradient>
<linearGradient id="paint5_linear_46_21" x1="132.22" y1="119.273" x2="131.222" y2="108.884" gradientUnits="userSpaceOnUse">
<stop stop-color="#273049"/>
<stop offset="1" stop-color="#6A80CF"/>
</linearGradient>
<linearGradient id="paint6_linear_46_21" x1="132.22" y1="151.049" x2="131.222" y2="140.661" gradientUnits="userSpaceOnUse">
<stop stop-color="#273049"/>
<stop offset="1" stop-color="#6A80CF"/>
</linearGradient>
<linearGradient id="paint7_linear_46_21" x1="132.22" y1="60.2725" x2="131.222" y2="49.884" gradientUnits="userSpaceOnUse">
<stop stop-color="#273049"/>
<stop offset="1" stop-color="#6A80CF"/>
</linearGradient>
<linearGradient id="paint8_linear_46_21" x1="132.22" y1="92.0494" x2="131.222" y2="81.6609" gradientUnits="userSpaceOnUse">
<stop stop-color="#273049"/>
<stop offset="1" stop-color="#6A80CF"/>
</linearGradient>
</defs>
</svg>
