<svg width="240" height="239" viewBox="0 0 240 239" fill="none" xmlns="http://www.w3.org/2000/svg">
<path d="M188.418 84.6825C188.418 85.6313 187.652 86.4077 186.714 86.4077H87.9543C87.0171 86.4077 86.2504 85.6313 86.2504 84.6825V2.70106C86.2504 2.22469 86.6318 1.83846 87.1023 1.83846H186.714C187.652 1.83846 188.418 2.6148 188.418 3.56367V84.6825Z" fill="white"/>
<path d="M185.859 86.4076H86.9848C85.5738 86.4076 84.426 85.2452 84.426 83.8164V1.72748C84.426 0.77499 85.1913 0 86.1319 0H185.859C187.27 0 188.418 1.16238 188.418 2.59122V83.8164C188.418 85.2452 187.27 86.4076 185.859 86.4076ZM86.1319 1.72748V83.8164C86.1319 84.2927 86.5144 84.6801 86.9848 84.6801H185.859C186.329 84.6801 186.712 84.2927 186.712 83.8164V2.59122C186.712 2.11487 186.329 1.72748 185.859 1.72748H86.1319Z" fill="url(#paint0_linear_1_133)"/>
<path d="M179.396 79.0538H95.2709C94.3206 79.0538 93.5473 78.2784 93.5473 77.3253V23.4046C93.5473 22.9292 93.7457 22.4822 94.0915 22.1775C94.4371 21.8729 94.9047 21.7335 95.3752 21.7951C95.3767 21.7951 95.7038 21.8357 96.2616 21.8357C101.69 21.8357 106.106 17.4078 106.106 11.9651C106.106 11.3902 106.06 11.0302 106.06 11.0267C105.996 10.5572 106.133 10.0873 106.436 9.73962C106.739 9.39196 107.186 9.19231 107.66 9.19231H166.801C167.276 9.19231 167.722 9.39174 168.025 9.73962C168.328 10.0875 168.465 10.5574 168.402 11.0289C168.402 11.0302 168.356 11.39 168.356 11.9651C168.356 17.4078 172.772 21.8357 178.2 21.8357C178.817 21.8357 179.266 21.7726 179.281 21.7707C179.75 21.7015 180.222 21.8344 180.571 22.1367C180.92 22.4388 181.12 22.8862 181.12 23.3642V77.3253C181.12 78.2784 180.347 79.0538 179.396 79.0538H179.396ZM95.2709 23.5221V77.3253H179.396V23.4981C179.186 23.5226 178.747 23.5643 178.2 23.5643C171.821 23.5643 166.632 18.3608 166.632 11.9651C166.632 11.4701 166.662 11.1015 166.68 10.9209H107.782C107.8 11.1017 107.83 11.4703 107.83 11.9651C107.83 18.3611 102.641 23.5643 96.262 23.5643C95.7811 23.5643 95.4407 23.5388 95.2712 23.5221H95.2709Z" fill="url(#paint1_linear_1_133)"/>
<path d="M214.08 25.7384H115.32C114.378 25.7384 113.616 26.5108 113.616 27.4636V108.582C113.616 109.535 114.378 110.308 115.32 110.308H214.08C215.021 110.308 215.784 109.535 215.784 108.582V27.4636C215.784 26.5108 215.021 25.7384 214.08 25.7384Z" fill="white"/>
<path d="M213.224 110.308H114.35C112.939 110.308 111.791 109.145 111.791 107.716V26.4912C111.791 25.0624 112.939 23.9 114.35 23.9H213.224C214.635 23.9 215.783 25.0624 215.783 26.4912V107.716C215.783 109.145 214.635 110.308 213.224 110.308ZM114.35 25.6275C113.879 25.6275 113.497 26.0149 113.497 26.4912V107.716C113.497 108.193 113.879 108.58 114.35 108.58H213.224C213.695 108.58 214.077 108.193 214.077 107.716V26.4912C214.077 26.0149 213.695 25.6275 213.224 25.6275H114.35Z" fill="url(#paint2_linear_1_133)"/>
<path d="M206.762 102.954H122.637C121.687 102.954 120.913 102.178 120.913 101.225V47.304C120.913 46.8289 121.112 46.3816 121.457 46.0772C121.803 45.7727 122.27 45.6327 122.741 45.6947C122.742 45.6947 123.07 45.7353 123.628 45.7353C129.056 45.7353 133.472 41.3074 133.472 35.8647C133.472 35.29 133.426 34.9304 133.425 34.927C133.362 34.4566 133.499 33.9866 133.803 33.6392C134.106 33.2917 134.551 33.0923 135.026 33.0923H194.167C194.642 33.0923 195.088 33.2917 195.391 33.6392C195.694 33.9868 195.831 34.4568 195.768 34.9285C195.768 34.9306 195.721 35.2902 195.721 35.8647C195.721 41.3074 200.138 45.7353 205.566 45.7353C206.183 45.7353 206.632 45.6722 206.647 45.6703C207.117 45.6011 207.588 45.7342 207.937 46.0361C208.286 46.3382 208.486 46.7857 208.486 47.2638V101.225C208.486 102.178 207.713 102.954 206.762 102.954L206.762 102.954ZM122.637 47.4218V101.225H206.762V47.3976C206.552 47.422 206.113 47.4637 205.566 47.4637C199.187 47.4637 193.998 42.2602 193.998 35.8645C193.998 35.3697 194.028 35.0011 194.046 34.8204H135.148C135.166 35.0011 135.196 35.3697 135.196 35.8645C135.196 42.2604 130.006 47.4637 123.628 47.4637C123.147 47.4637 122.807 47.4382 122.637 47.4218H122.637Z" fill="url(#paint3_linear_1_133)"/>
<path d="M152.507 192.897H237.676V87.9975C237.676 76.0005 227.956 66.1846 216.077 66.1846H22.0987C10.2195 66.1846 0.5 76.0005 0.5 87.9975V215.349C0.5 227.346 10.2195 237.162 22.0987 237.162H216.077C222.535 237.162 228.354 234.262 232.321 229.685H152.507C142.808 229.685 134.872 221.67 134.872 211.875V210.708C134.872 200.912 142.808 192.897 152.507 192.897V192.897ZM30.4488 100.469C30.4488 99.148 31.519 98.0672 32.8268 98.0672H204.538C205.846 98.0672 206.916 99.148 206.916 100.469V101.797C206.916 103.118 205.846 104.199 204.538 104.199H32.8268C31.519 104.199 30.4488 103.118 30.4488 101.797V100.469ZM32.8268 136.49C31.519 136.49 30.4488 135.409 30.4488 134.089V132.76C30.4488 131.439 31.519 130.358 32.8268 130.358H204.538C205.846 130.358 206.916 131.439 206.916 132.76V134.089C206.916 135.409 205.846 136.49 204.538 136.49H32.8268Z" fill="white"/>
<path d="M217.214 239H22.7857C10.4974 239 0.5 228.894 0.5 216.473V88.7114C0.5 76.29 10.4974 66.1846 22.7857 66.1846H217.214C229.503 66.1846 239.5 76.2903 239.5 88.7114V194.593H153.497C144.101 194.593 136.457 202.32 136.457 211.817V212.988C136.457 222.485 144.101 230.212 153.497 230.212H234.9L233.976 231.28C229.727 236.186 223.617 239 217.214 239ZM22.7857 67.4719C11.1996 67.4719 1.77366 76.9999 1.77366 88.7112V216.473C1.77366 228.184 11.1996 237.712 22.7857 237.712H217.214C222.769 237.712 228.091 235.464 232.027 231.499H153.497C143.399 231.499 135.184 223.195 135.184 212.987V211.817C135.184 201.61 143.399 193.305 153.497 193.305H238.226V88.7112C238.226 76.9999 228.8 67.4719 217.214 67.4719H22.7859H22.7857ZM205.649 138.004H33.5386C31.8733 138.004 30.5183 136.634 30.5183 134.951V133.618C30.5183 131.935 31.8731 130.565 33.5386 130.565H205.649C207.314 130.565 208.669 131.935 208.669 133.618V134.951C208.669 136.634 207.314 138.004 205.649 138.004ZM33.5386 131.853C32.5755 131.853 31.792 132.644 31.792 133.618V134.951C31.792 135.925 32.5755 136.717 33.5386 136.717H205.649C206.612 136.717 207.395 135.925 207.395 134.951V133.618C207.395 132.645 206.612 131.853 205.649 131.853H33.5386ZM205.649 105.609H33.5386C31.8733 105.609 30.5183 104.239 30.5183 102.556V101.223C30.5183 99.5393 31.8731 98.1696 33.5386 98.1696H205.649C207.314 98.1696 208.669 99.5393 208.669 101.223V102.556C208.669 104.239 207.314 105.609 205.649 105.609ZM33.5386 99.4573C32.5755 99.4573 31.792 100.249 31.792 101.223V102.556C31.792 103.529 32.5755 104.321 33.5386 104.321H205.649C206.612 104.321 207.395 103.53 207.395 102.556V101.223C207.395 100.249 206.612 99.4573 205.649 99.4573H33.5386Z" fill="url(#paint4_linear_1_133)"/>
<path d="M204.276 97.4385H32.0756C30.7585 97.4385 29.6909 98.4056 29.6909 99.5986V100.794C29.6909 101.987 30.7585 102.954 32.0756 102.954H204.276C205.593 102.954 206.66 101.987 206.66 100.794V99.5986C206.66 98.4056 205.593 97.4385 204.276 97.4385Z" fill="white"/>
<path d="M205.454 104.792H32.722C31.0507 104.792 29.6909 103.438 29.6909 101.774V100.456C29.6909 98.7924 31.0505 97.4385 32.722 97.4385H205.454C207.125 97.4385 208.485 98.7924 208.485 100.456V101.774C208.485 103.438 207.125 104.792 205.454 104.792ZM32.722 98.7114C31.7555 98.7114 30.9691 99.4941 30.9691 100.457V101.775C30.9691 102.737 31.7555 103.52 32.722 103.52H205.454C206.42 103.52 207.206 102.737 207.206 101.775V100.457C207.206 99.4943 206.42 98.7114 205.454 98.7114H32.722Z" fill="url(#paint5_linear_1_133)"/>
<path d="M204.276 130.531H32.0756C30.7585 130.531 29.6909 131.498 29.6909 132.691V133.886C29.6909 135.079 30.7585 136.046 32.0756 136.046H204.276C205.593 136.046 206.66 135.079 206.66 133.886V132.691C206.66 131.498 205.593 130.531 204.276 130.531Z" fill="white"/>
<path d="M205.454 137.885H32.722C31.0507 137.885 29.6909 136.531 29.6909 134.867V133.549C29.6909 131.885 31.0505 130.531 32.722 130.531H205.454C207.125 130.531 208.485 131.885 208.485 133.549V134.867C208.485 136.531 207.125 137.885 205.454 137.885ZM32.722 131.804C31.7555 131.804 30.9691 132.586 30.9691 133.549V134.867C30.9691 135.829 31.7555 136.612 32.722 136.612H205.454C206.42 136.612 207.206 135.829 207.206 134.867V133.549C207.206 132.587 206.42 131.804 205.454 131.804H32.722Z" fill="url(#paint6_linear_1_133)"/>
<path d="M237.675 193.039V215.479C237.675 220.953 235.664 225.97 232.354 229.808H153.033C143.394 229.808 135.507 221.797 135.507 212.006V210.84C135.507 201.049 143.394 193.039 153.033 193.039H237.675Z" fill="white"/>
<path d="M233.802 231.646H153.763C143.697 231.646 135.507 223.252 135.507 212.934V211.751C135.507 201.433 143.697 193.039 153.763 193.039H239.499V216.457C239.499 221.954 237.543 227.269 233.992 231.424L233.802 231.646H233.802ZM153.763 194.34C144.397 194.34 136.777 202.151 136.777 211.751V212.934C136.777 222.534 144.397 230.345 153.763 230.345H233.224C236.454 226.461 238.229 221.541 238.229 216.457V194.34H153.763H153.763Z" fill="url(#paint7_linear_1_133)"/>
<path d="M204.276 97.4385H32.0756C30.7585 97.4385 29.6909 98.4056 29.6909 99.5986V100.794C29.6909 101.987 30.7585 102.954 32.0756 102.954H204.276C205.593 102.954 206.66 101.987 206.66 100.794V99.5986C206.66 98.4056 205.593 97.4385 204.276 97.4385Z" fill="white"/>
<path d="M205.454 104.792H32.722C31.0507 104.792 29.6909 103.438 29.6909 101.774V100.456C29.6909 98.7924 31.0505 97.4385 32.722 97.4385H205.454C207.125 97.4385 208.485 98.7924 208.485 100.456V101.774C208.485 103.438 207.125 104.792 205.454 104.792ZM32.722 98.7114C31.7555 98.7114 30.9691 99.4941 30.9691 100.457V101.775C30.9691 102.737 31.7555 103.52 32.722 103.52H205.454C206.42 103.52 207.206 102.737 207.206 101.775V100.457C207.206 99.4943 206.42 98.7114 205.454 98.7114H32.722Z" fill="url(#paint8_linear_1_133)"/>
<path d="M204.276 130.531H32.0756C30.7585 130.531 29.6909 131.498 29.6909 132.691V133.886C29.6909 135.079 30.7585 136.046 32.0756 136.046H204.276C205.593 136.046 206.66 135.079 206.66 133.886V132.691C206.66 131.498 205.593 130.531 204.276 130.531Z" fill="white"/>
<path d="M205.454 137.885H32.722C31.0507 137.885 29.6909 136.531 29.6909 134.867V133.549C29.6909 131.885 31.0505 130.531 32.722 130.531H205.454C207.125 130.531 208.485 131.885 208.485 133.549V134.867C208.485 136.531 207.125 137.885 205.454 137.885ZM32.722 131.804C31.7555 131.804 30.9691 132.586 30.9691 133.549V134.867C30.9691 135.829 31.7555 136.612 32.722 136.612H205.454C206.42 136.612 207.206 135.829 207.206 134.867V133.549C207.206 132.587 206.42 131.804 205.454 131.804H32.722Z" fill="url(#paint9_linear_1_133)"/>
<path d="M237.675 193.039V215.479C237.675 220.953 235.664 225.97 232.354 229.808H153.033C143.394 229.808 135.507 221.797 135.507 212.006V210.84C135.507 201.049 143.394 193.039 153.033 193.039H237.675Z" fill="white"/>
<path d="M233.802 231.646H153.763C143.697 231.646 135.507 223.252 135.507 212.934V211.751C135.507 201.433 143.697 193.039 153.763 193.039H239.499V216.457C239.499 221.954 237.543 227.269 233.992 231.424L233.802 231.646H233.802ZM153.763 194.34C144.397 194.34 136.777 202.151 136.777 211.751V212.934C136.777 222.534 144.397 230.345 153.763 230.345H233.224C236.454 226.461 238.229 221.541 238.229 216.457V194.34H153.763H153.763Z" fill="url(#paint10_linear_1_133)"/>
<path d="M157.401 220.615C162.439 220.615 166.523 216.5 166.523 211.423C166.523 206.346 162.439 202.231 157.401 202.231C152.363 202.231 148.279 206.346 148.279 211.423C148.279 216.5 152.363 220.615 157.401 220.615Z" fill="white"/>
<path d="M158.313 222.454C152.78 222.454 148.279 217.918 148.279 212.342C148.279 206.767 152.78 202.231 158.313 202.231C163.846 202.231 168.347 206.767 168.347 212.342C168.347 217.918 163.846 222.454 158.313 222.454ZM158.313 203.523C153.487 203.523 149.561 207.479 149.561 212.342C149.561 217.206 153.487 221.162 158.313 221.162C163.139 221.162 167.065 217.205 167.065 212.342C167.065 207.479 163.139 203.523 158.313 203.523Z" fill="url(#paint11_linear_1_133)"/>
<defs>
<linearGradient id="paint0_linear_1_133" x1="163.658" y1="62.6848" x2="147.656" y2="30.1731" gradientUnits="userSpaceOnUse">
<stop stop-color="#273049"/>
<stop offset="1" stop-color="#6A80CF"/>
</linearGradient>
<linearGradient id="paint1_linear_1_133" x1="160.269" y1="59.8737" x2="147.655" y2="33.1806" gradientUnits="userSpaceOnUse">
<stop stop-color="#273049"/>
<stop offset="1" stop-color="#6A80CF"/>
</linearGradient>
<linearGradient id="paint2_linear_1_133" x1="191.023" y1="86.5848" x2="175.021" y2="54.0731" gradientUnits="userSpaceOnUse">
<stop stop-color="#273049"/>
<stop offset="1" stop-color="#6A80CF"/>
</linearGradient>
<linearGradient id="paint3_linear_1_133" x1="187.635" y1="83.7737" x2="175.021" y2="57.0805" gradientUnits="userSpaceOnUse">
<stop stop-color="#273049"/>
<stop offset="1" stop-color="#6A80CF"/>
</linearGradient>
<linearGradient id="paint4_linear_1_133" x1="182.595" y1="191.554" x2="153.361" y2="123.3" gradientUnits="userSpaceOnUse">
<stop stop-color="#273049"/>
<stop offset="1" stop-color="#6A80CF"/>
</linearGradient>
<linearGradient id="paint5_linear_1_133" x1="165.915" y1="102.773" x2="165.831" y2="99.3382" gradientUnits="userSpaceOnUse">
<stop stop-color="#273049"/>
<stop offset="1" stop-color="#6A80CF"/>
</linearGradient>
<linearGradient id="paint6_linear_1_133" x1="165.915" y1="135.866" x2="165.831" y2="132.43" gradientUnits="userSpaceOnUse">
<stop stop-color="#273049"/>
<stop offset="1" stop-color="#6A80CF"/>
</linearGradient>
<linearGradient id="paint7_linear_1_133" x1="214.739" y1="221.047" x2="210.954" y2="203.834" gradientUnits="userSpaceOnUse">
<stop stop-color="#273049"/>
<stop offset="1" stop-color="#6A80CF"/>
</linearGradient>
<linearGradient id="paint8_linear_1_133" x1="165.915" y1="102.773" x2="165.831" y2="99.3382" gradientUnits="userSpaceOnUse">
<stop stop-color="#273049"/>
<stop offset="1" stop-color="#6A80CF"/>
</linearGradient>
<linearGradient id="paint9_linear_1_133" x1="165.915" y1="135.866" x2="165.831" y2="132.43" gradientUnits="userSpaceOnUse">
<stop stop-color="#273049"/>
<stop offset="1" stop-color="#6A80CF"/>
</linearGradient>
<linearGradient id="paint10_linear_1_133" x1="214.739" y1="221.047" x2="210.954" y2="203.834" gradientUnits="userSpaceOnUse">
<stop stop-color="#273049"/>
<stop offset="1" stop-color="#6A80CF"/>
</linearGradient>
<linearGradient id="paint11_linear_1_133" x1="163.569" y1="216.902" x2="159.409" y2="209.932" gradientUnits="userSpaceOnUse">
<stop stop-color="#273049"/>
<stop offset="1" stop-color="#6A80CF"/>
</linearGradient>
</defs>
</svg>
