<svg width="274" height="243" viewBox="0 0 274 243" fill="none" xmlns="http://www.w3.org/2000/svg">
<path d="M255.631 1.86923H19.5712C9.95219 1.86923 2.08208 9.75949 2.08208 19.4032V204.905C2.08208 214.548 9.95219 222.438 19.5712 222.438H255.631C265.25 222.438 273.121 214.548 273.121 204.905V19.4033C273.121 9.75964 265.25 1.86938 255.631 1.86938L255.631 1.86923ZM264.756 197.372C264.756 207.016 256.886 214.906 247.267 214.906H26.6585C17.0394 214.906 9.16933 207.016 9.16933 197.372V26.7217C9.16933 17.078 17.0394 9.18776 26.6585 9.18776H247.267C256.886 9.18776 264.756 17.078 264.756 26.7217V197.372V197.372Z" fill="white"/>
<path d="M254.864 222.437H18.4697C8.40295 222.437 0.212845 214.224 0.212845 204.128V18.3089C0.212845 8.21338 8.4028 0 18.4697 0H254.864C264.931 0 273.121 8.21338 273.121 18.3089V204.128C273.121 214.224 264.931 222.437 254.864 222.437ZM18.4697 1.48987C9.22198 1.48987 1.69847 9.03489 1.69847 18.3089V204.128C1.69847 213.402 9.22198 220.947 18.4697 220.947H254.864C264.111 220.947 271.635 213.402 271.635 204.128V18.3089C271.635 9.03474 264.111 1.48987 254.864 1.48987H18.4697ZM246.488 214.892H25.567C15.5002 214.892 7.31028 206.678 7.31028 196.583V25.6397C7.31028 15.5442 15.5002 7.33078 25.567 7.33078H246.488C256.554 7.33078 264.744 15.5442 264.744 25.6397V196.583C264.744 206.678 256.554 214.892 246.488 214.892ZM25.567 8.82065C16.3194 8.82065 8.7959 16.3657 8.7959 25.6397V196.583C8.7959 205.857 16.3194 213.402 25.567 213.402H246.488C255.735 213.402 263.259 205.857 263.259 196.583V25.6397C263.259 16.3655 255.735 8.82065 246.488 8.82065H25.567Z" fill="url(#paint0_linear_1_207)"/>
<path d="M248.12 9.34616H27.0822C17.4044 9.34616 9.55899 17.1924 9.55899 26.8713V197.436C9.55899 207.115 17.4044 214.962 27.0822 214.962H248.12C257.798 214.962 265.644 207.115 265.644 197.436V26.8713C265.644 17.1924 257.798 9.34616 248.12 9.34616Z" fill="white"/>
<path d="M247.35 214.96H25.9833C15.8963 214.96 7.68977 206.75 7.68977 196.658V25.779C7.68977 15.6873 15.8963 7.47693 25.9833 7.47693H247.35C257.437 7.47693 265.644 15.6873 265.644 25.779V196.658C265.644 206.75 257.437 214.961 247.35 214.961V214.96ZM25.9833 8.96625C16.7171 8.96625 9.17839 16.5085 9.17839 25.779V196.658C9.17839 205.929 16.7171 213.471 25.9833 213.471H247.35C256.616 213.471 264.155 205.929 264.155 196.658V25.779C264.155 16.5083 256.616 8.96625 247.35 8.96625H25.9833Z" fill="url(#paint1_linear_1_207)"/>
<path d="M248.12 9.34616H27.0822C17.4044 9.34616 9.55899 17.1924 9.55899 26.8713V197.436C9.55899 207.115 17.4044 214.962 27.0822 214.962H248.12C257.798 214.962 265.644 207.115 265.644 197.436V26.8713C265.644 17.1924 257.798 9.34616 248.12 9.34616Z" fill="white"/>
<path d="M247.35 214.96H25.9833C15.8963 214.96 7.68977 206.75 7.68977 196.658V25.779C7.68977 15.6873 15.8963 7.47693 25.9833 7.47693H247.35C257.437 7.47693 265.644 15.6873 265.644 25.779V196.658C265.644 206.75 257.437 214.961 247.35 214.961V214.96ZM25.9833 8.96625C16.7171 8.96625 9.17839 16.5085 9.17839 25.779V196.658C9.17839 205.929 16.7171 213.471 25.9833 213.471H247.35C256.616 213.471 264.155 205.929 264.155 196.658V25.779C264.155 16.5083 256.616 8.96625 247.35 8.96625H25.9833Z" fill="url(#paint2_linear_1_207)"/>
<path d="M150.194 28.0385H29.6776C27.8575 28.0385 26.382 29.4657 26.382 31.2264V62.2352C26.382 63.9958 27.8575 65.4231 29.6776 65.4231H150.194C152.014 65.4231 153.49 63.9958 153.49 62.2352V31.2264C153.49 29.4657 152.014 28.0385 150.194 28.0385Z" fill="white"/>
<path d="M149.433 65.422H28.5691C26.3325 65.422 24.5128 63.648 24.5128 61.4674V30.1239C24.5128 27.9433 26.3325 26.1692 28.5691 26.1692H149.434C151.67 26.1692 153.49 27.9433 153.49 30.1239V61.4674C153.49 63.648 151.67 65.422 149.434 65.422H149.433ZM28.5691 27.6339C27.1608 27.6339 26.0152 28.7509 26.0152 30.1239V61.4674C26.0152 62.8403 27.1608 63.9573 28.5691 63.9573H149.434C150.842 63.9573 151.987 62.8403 151.987 61.4674V30.1239C151.987 28.7509 150.842 27.6339 149.434 27.6339H28.5691Z" fill="url(#paint3_linear_1_207)"/>
<path d="M149.857 78.5077H87.9606C86.9869 78.5077 86.1975 79.3523 86.1975 80.3941V93.4444C86.1975 94.4862 86.9869 95.3308 87.9606 95.3308H149.857C150.831 95.3308 151.621 94.4862 151.621 93.4444V80.3941C151.621 79.3523 150.831 78.5077 149.857 78.5077Z" fill="white"/>
<path d="M149.108 95.3294H86.8409C85.4554 95.3294 84.3282 94.1113 84.3282 92.6141V79.3537C84.3282 77.8565 85.4554 76.6385 86.8409 76.6385H149.108C150.493 76.6385 151.621 77.8565 151.621 79.3537V92.6141C151.621 94.1113 150.493 95.3294 149.108 95.3294ZM86.8409 78.2357C86.2704 78.2357 85.8063 78.7372 85.8063 79.3537V92.6141C85.8063 93.2306 86.2704 93.7322 86.8409 93.7322H149.108C149.678 93.7322 150.142 93.2306 150.142 92.6141V79.3537C150.142 78.7372 149.678 78.2357 149.108 78.2357H86.8409Z" fill="url(#paint4_linear_1_207)"/>
<path d="M175.921 222.438V240.528C175.921 241.887 174.27 243 172.252 243H93.6041C91.5865 243 89.9359 241.887 89.9359 240.528V222.438H175.921Z" fill="white"/>
<path d="M171.491 243H92.4968C90.0127 243 88.0667 241.558 88.0667 239.718V220.569H175.921V239.718C175.921 241.558 173.975 243 171.491 243ZM89.5581 222.109V239.718C89.5581 240.542 90.765 241.46 92.4968 241.46H171.491C173.222 241.46 174.429 240.542 174.429 239.718V222.109H89.5583H89.5581Z" fill="url(#paint5_linear_1_207)"/>
<path d="M71.3451 78.5077H28.1497C27.1734 78.5077 26.382 79.3523 26.382 80.3941V93.4444C26.382 94.4862 27.1734 95.3308 28.1497 95.3308H71.3451C72.3214 95.3308 73.1128 94.4862 73.1128 93.4444V80.3941C73.1128 79.3523 72.3214 78.5077 71.3451 78.5077Z" fill="white"/>
<path d="M70.5881 95.3296H27.0376C25.6454 95.3296 24.5128 94.1115 24.5128 92.6142V79.3538C24.5128 77.8565 25.6454 76.6385 27.0376 76.6385H70.5881C71.9803 76.6385 73.1128 77.8565 73.1128 79.3538V92.6142C73.1128 94.1115 71.9803 95.3296 70.5881 95.3296ZM27.0376 78.2357C26.4643 78.2357 25.998 78.7372 25.998 79.3538V92.6142C25.998 93.2308 26.4643 93.7323 27.0376 93.7323H70.5881C71.1614 93.7323 71.6277 93.2308 71.6277 92.6142V79.3538C71.6277 78.7372 71.1614 78.2357 70.5881 78.2357H27.0376Z" fill="url(#paint6_linear_1_207)"/>
<path d="M57.4283 51.7857C57.4283 50.9409 57.1262 50.2292 56.5217 49.6507C55.9173 49.0723 54.8984 48.5488 53.4648 48.0806C51.4692 47.4838 50.0146 46.7055 49.1011 45.746C48.1875 44.7866 47.7307 43.5677 47.7307 42.0892C47.7307 40.5834 48.178 39.3483 49.0729 38.3841C49.9675 37.42 51.1974 36.8462 52.7622 36.6625V33.6461H54.8563V36.6764C56.4303 36.8877 57.6553 37.535 58.5314 38.6184C59.4074 39.7019 59.8455 41.1849 59.8455 43.0672H57.2595C57.2595 41.7684 56.9454 40.7367 56.3179 39.972C55.69 39.2075 54.8421 38.825 53.774 38.825C52.6588 38.825 51.8064 39.108 51.2162 39.6736C50.626 40.2393 50.3308 41.028 50.3308 42.0399C50.3308 42.9783 50.6421 43.7256 51.2654 44.2822C51.8884 44.8387 52.9143 45.3446 54.3433 45.8C55.772 46.2554 56.8871 46.7562 57.6882 47.3023C58.4893 47.8487 59.0795 48.4847 59.4591 49.2099C59.8386 49.9353 60.0282 50.7849 60.0282 51.7579C60.0282 53.3098 59.5526 54.5587 58.6017 55.5043C57.6507 56.4501 56.3179 57.0101 54.6033 57.1846V59.8154H52.5232V57.1846C50.7804 57.0283 49.4148 56.4202 48.4264 55.3598C47.4378 54.2991 46.9436 52.86 46.9436 51.0418H49.5436C49.5436 52.3181 49.8855 53.3006 50.5696 53.9892C51.2534 54.6778 52.2231 55.0222 53.4788 55.0222C54.7062 55.0222 55.6712 54.7331 56.374 54.1546C57.0766 53.5762 57.4281 52.7864 57.4281 51.7857H57.4283Z" fill="url(#paint7_linear_1_207)"/>
<path d="M129.643 179.446C129.272 179.446 128.898 179.34 128.57 179.12L69.1743 139.304L54.1318 150.303L52.5513 148.133L68.0143 136.826C68.6684 136.348 69.5598 136.33 70.2326 136.781L129.485 176.501L205.581 78.5076L207.697 80.1576L131.176 178.699C130.797 179.187 130.223 179.446 129.643 179.446V179.446Z" fill="url(#paint8_linear_1_207)"/>
<path d="M222.258 91.5923C221.826 91.5923 221.393 91.4677 221.014 91.2181L188.154 69.5771C187.387 69.0722 187.004 68.1631 187.177 67.2615C187.35 66.3599 188.043 65.6577 188.942 65.4725L216.192 59.8625C216.784 59.7407 217.388 59.8566 217.892 60.189C218.397 60.5214 218.742 61.0302 218.864 61.6221L224.473 88.8728C224.659 89.772 224.287 90.6858 223.527 91.201C223.143 91.4615 222.701 91.592 222.258 91.592V91.5923ZM190.566 67.9123L221.591 88.3445L216.294 62.6158L190.566 67.9123Z" fill="url(#paint9_linear_1_207)"/>
<defs>
<linearGradient id="paint0_linear_1_207" x1="208.142" y1="161.368" x2="167.435" y2="77.0529" gradientUnits="userSpaceOnUse">
<stop stop-color="#273049"/>
<stop offset="1" stop-color="#6A80CF"/>
</linearGradient>
<linearGradient id="paint1_linear_1_207" x1="204.226" y1="157.997" x2="166.568" y2="78.9595" gradientUnits="userSpaceOnUse">
<stop stop-color="#273049"/>
<stop offset="1" stop-color="#6A80CF"/>
</linearGradient>
<linearGradient id="paint2_linear_1_207" x1="204.226" y1="157.997" x2="166.568" y2="78.9595" gradientUnits="userSpaceOnUse">
<stop stop-color="#273049"/>
<stop offset="1" stop-color="#6A80CF"/>
</linearGradient>
<linearGradient id="paint3_linear_1_207" x1="122.781" y1="54.6453" x2="119.578" y2="36.8758" gradientUnits="userSpaceOnUse">
<stop stop-color="#273049"/>
<stop offset="1" stop-color="#6A80CF"/>
</linearGradient>
<linearGradient id="paint4_linear_1_207" x1="135.599" y1="90.1979" x2="134.199" y2="81.6918" gradientUnits="userSpaceOnUse">
<stop stop-color="#273049"/>
<stop offset="1" stop-color="#6A80CF"/>
</linearGradient>
<linearGradient id="paint5_linear_1_207" x1="155.003" y1="236.841" x2="153.453" y2="226.592" gradientUnits="userSpaceOnUse">
<stop stop-color="#273049"/>
<stop offset="1" stop-color="#6A80CF"/>
</linearGradient>
<linearGradient id="paint6_linear_1_207" x1="61.5414" y1="90.198" x2="59.6493" y2="81.8927" gradientUnits="userSpaceOnUse">
<stop stop-color="#273049"/>
<stop offset="1" stop-color="#6A80CF"/>
</linearGradient>
<linearGradient id="paint7_linear_1_207" x1="56.9128" y1="52.6307" x2="50.8838" y2="47.5417" gradientUnits="userSpaceOnUse">
<stop stop-color="#273049"/>
<stop offset="1" stop-color="#6A80CF"/>
</linearGradient>
<linearGradient id="paint8_linear_1_207" x1="170.758" y1="151.734" x2="154.927" y2="110.655" gradientUnits="userSpaceOnUse">
<stop stop-color="#273049"/>
<stop offset="1" stop-color="#6A80CF"/>
</linearGradient>
<linearGradient id="paint9_linear_1_207" x1="215.619" y1="82.868" x2="209.653" y2="71.0191" gradientUnits="userSpaceOnUse">
<stop stop-color="#273049"/>
<stop offset="1" stop-color="#6A80CF"/>
</linearGradient>
</defs>
</svg>
